<?xml version="1.0" standalone="no"?>
<!DOCTYPE svg PUBLIC "-//W3C//DTD SVG 20010904//EN"
 "http://www.w3.org/TR/2001/REC-SVG-20010904/DTD/svg10.dtd">
<svg version="1.0" xmlns="http://www.w3.org/2000/svg"
 width="512.000000pt" height="512.000000pt" viewBox="0 0 512.000000 512.000000"
 preserveAspectRatio="xMidYMid meet">
<metadata>
Created by potrace 1.11, written by Peter Selinger 2001-2013
</metadata>
<g transform="translate(0.000000,512.000000) scale(0.100000,-0.100000)"
fill="#000000" stroke="none">
<path d="M620 4384 c-67 -29 -112 -90 -125 -169 -24 -150 -49 -198 -119 -235
-66 -33 -89 -70 -94 -147 l-4 -63 -44 0 c-128 0 -226 -113 -211 -242 5 -36 3
-47 -6 -41 -9 5 -9 3 0 -9 7 -8 15 -54 17 -104 2 -49 7 -96 10 -104 3 -8 7
-79 8 -156 2 -78 6 -140 11 -137 4 2 8 -28 8 -69 2 -176 5 -228 13 -228 5 0 3
-7 -4 -15 -7 -8 -8 -15 -3 -15 5 0 10 -6 10 -12 1 -7 3 -90 6 -183 3 -94 9
-179 13 -189 4 -10 2 -27 -5 -38 -7 -12 -8 -17 -2 -13 8 4 11 -21 13 -77 2
-118 8 -306 14 -423 2 -55 6 -261 9 -458 2 -196 7 -362 10 -367 3 -6 0 -10 -7
-10 -11 0 -11 -2 0 -9 9 -5 13 -27 11 -62 -1 -30 0 -61 2 -69 2 -8 -2 -14 -9
-12 -8 1 -11 -2 -7 -8 3 -6 11 -7 17 -4 7 5 9 0 6 -14 -4 -12 -3 -20 1 -18 4
3 12 -8 19 -22 l12 -28 414 1 c228 1 412 -3 409 -7 -2 -5 1 -15 7 -23 7 -8 9
-15 4 -15 -14 0 -36 17 -35 26 1 5 -8 10 -19 10 -11 1 -17 -2 -15 -7 3 -4 0
-11 -6 -15 -7 -4 -9 -3 -6 3 4 6 1 13 -7 16 -9 4 -12 0 -9 -13 3 -10 13 -18
23 -17 10 1 16 5 13 10 -3 5 0 7 8 5 8 -3 13 -14 12 -24 -1 -10 0 -13 3 -6 3
6 10 12 15 12 6 0 7 -5 3 -11 -5 -8 -1 -8 14 0 15 8 23 6 38 -10 13 -14 19
-16 25 -7 4 7 3 18 -3 25 -7 9 -7 13 1 13 6 0 14 -6 17 -13 7 -18 39 -15 62 6
28 26 39 20 13 -7 -15 -16 -19 -26 -12 -31 7 -3 10 -1 9 6 -2 7 3 13 10 14 8
0 19 8 26 17 7 10 16 15 19 11 4 -3 2 -12 -4 -20 -9 -9 -8 -13 0 -13 6 0 11 4
11 9 0 17 40 19 50 3 8 -14 10 -15 11 -2 1 8 1 18 0 22 -2 12 11 9 39 -7 30
-17 40 -18 40 -4 0 5 -4 7 -10 4 -5 -3 -10 -2 -10 3 0 6 7 13 16 16 21 8 20 8
22 -6 2 -25 8 -48 15 -54 3 -4 4 4 1 17 -3 13 -6 29 -8 36 -4 21 -14 25 -34
14 -15 -8 -22 -8 -25 2 -4 9 -6 9 -6 0 -1 -7 -6 -13 -12 -13 -5 0 -8 3 -6 7 3
5 -14 8 -38 9 -24 0 -42 -3 -39 -7 2 -5 12 -5 21 -2 11 4 14 3 9 -5 -11 -17
-34 -15 -45 6 -6 9 -11 11 -11 5 0 -7 -5 -13 -11 -13 -5 0 -8 3 -6 8 3 4 -8 7
-23 7 -21 1 -26 -2 -19 -11 6 -8 4 -16 -8 -25 -15 -12 -16 -12 -10 3 3 9 0 22
-8 28 -12 10 -13 8 -10 -10 2 -13 0 -20 -7 -18 -6 2 -13 13 -14 24 -3 18 5 19
201 20 112 0 201 -4 199 -8 -3 -5 0 -15 6 -23 7 -8 9 -15 4 -15 -14 0 -36 17
-35 26 1 5 -8 10 -19 10 -11 1 -17 -2 -15 -7 3 -4 0 -11 -6 -15 -7 -4 -9 -3
-6 3 4 6 1 13 -7 16 -9 4 -12 0 -9 -13 3 -10 13 -18 23 -17 10 1 16 5 13 10
-3 5 0 7 8 5 8 -3 13 -14 12 -24 -1 -10 0 -13 3 -6 3 6 10 12 15 12 6 0 7 -5
3 -11 -5 -8 -1 -8 14 0 15 8 23 6 38 -10 13 -14 19 -16 25 -7 4 7 3 18 -3 25
-7 9 -7 13 1 13 6 0 14 -6 17 -13 7 -18 39 -15 62 6 28 26 39 20 13 -7 -15
-16 -19 -26 -12 -31 7 -3 10 -1 9 6 -2 7 3 13 10 14 8 0 19 8 26 17 7 10 16
15 19 11 4 -3 2 -12 -4 -20 -9 -9 -8 -13 0 -13 6 0 11 4 11 9 0 17 40 19 50 3
8 -14 10 -15 11 -2 1 8 1 18 0 22 -2 12 11 9 39 -7 30 -17 40 -18 40 -4 0 5
-5 7 -10 4 -6 -3 -10 -2 -10 3 0 6 7 13 16 16 21 8 20 8 22 -6 2 -25 8 -48 15
-54 3 -4 4 4 1 17 -3 13 -6 29 -8 36 -4 21 -14 25 -34 14 -15 -8 -22 -8 -25 2
-4 9 -6 9 -6 0 -1 -7 -6 -13 -12 -13 -5 0 -8 3 -6 8 3 4 -14 7 -38 8 -24 0
-42 -3 -39 -7 2 -5 12 -5 21 -2 11 4 14 3 9 -5 -11 -17 -34 -15 -45 6 -6 9
-11 11 -11 5 0 -7 -5 -13 -11 -13 -5 0 -8 3 -6 8 3 4 -8 7 -23 7 -21 1 -26 -2
-19 -11 6 -8 4 -16 -8 -25 -15 -12 -16 -12 -10 3 3 9 0 22 -8 28 -12 10 -13 8
-10 -10 2 -13 0 -20 -7 -18 -6 2 -13 13 -14 24 -3 19 8 19 681 19 376 0 681
-3 678 -8 -2 -4 1 -14 7 -22 7 -8 9 -15 4 -15 -14 0 -36 17 -35 26 1 5 -8 10
-19 10 -11 1 -17 -2 -15 -7 3 -4 0 -11 -6 -15 -7 -4 -9 -3 -6 3 4 6 1 13 -7
16 -9 4 -12 0 -9 -13 3 -10 13 -18 23 -17 10 1 16 5 13 10 -3 5 0 7 8 5 8 -3
13 -14 12 -24 -1 -10 0 -13 3 -6 3 6 10 12 15 12 6 0 7 -5 3 -11 -5 -8 -1 -8
14 0 15 8 23 6 38 -10 13 -14 19 -16 25 -7 4 7 3 18 -3 25 -7 9 -7 13 1 13 6
0 14 -6 17 -13 7 -18 39 -15 62 6 28 26 39 20 13 -7 -15 -16 -19 -26 -12 -31
7 -3 10 -1 9 6 -2 7 3 13 10 14 8 0 19 8 26 17 7 10 16 15 19 11 4 -3 2 -12
-4 -20 -9 -9 -8 -13 0 -13 6 0 11 4 11 9 0 17 40 19 50 3 8 -14 10 -15 11 -2
1 8 1 18 0 23 -2 11 11 8 39 -8 30 -17 40 -18 40 -4 0 5 -4 7 -10 4 -6 -3 -10
-2 -10 3 0 6 7 13 16 16 21 8 20 8 22 -6 2 -25 8 -48 15 -54 3 -4 4 4 1 17 -3
13 -6 29 -8 36 -4 21 -14 25 -34 14 -15 -8 -22 -8 -25 2 -4 9 -6 9 -6 0 -1 -7
-6 -13 -12 -13 -5 0 -8 3 -6 8 3 4 -14 7 -38 8 -24 0 -42 -3 -39 -7 2 -5 12
-5 21 -2 11 4 14 3 9 -5 -11 -17 -34 -15 -45 6 -6 9 -11 11 -11 5 0 -7 -5 -13
-11 -13 -5 0 -8 3 -6 8 3 4 -8 7 -23 7 -21 1 -26 -2 -19 -11 6 -8 4 -16 -8
-25 -15 -12 -16 -12 -10 3 3 9 0 22 -8 28 -12 10 -13 8 -10 -10 2 -13 0 -20
-7 -18 -6 2 -13 13 -14 24 -3 18 5 19 201 20 112 0 201 -4 199 -8 -3 -5 0 -15
6 -23 7 -8 9 -15 4 -15 -14 0 -36 17 -35 26 1 5 -8 10 -19 10 -11 1 -17 -2
-15 -7 3 -4 0 -11 -6 -15 -7 -4 -9 -3 -6 3 4 6 1 13 -7 16 -9 4 -12 0 -9 -13
3 -10 13 -18 23 -17 10 1 16 5 13 10 -3 5 0 7 8 5 8 -3 13 -14 12 -24 -1 -10
0 -13 3 -6 3 6 10 12 15 12 6 0 7 -5 3 -11 -5 -8 -1 -8 14 0 15 8 23 6 38 -10
13 -14 19 -16 25 -7 4 7 3 18 -3 25 -7 9 -7 13 1 13 6 0 14 -6 17 -13 7 -18
39 -15 62 6 28 26 39 20 13 -7 -15 -16 -19 -26 -12 -31 7 -3 10 -1 9 6 -2 7 3
13 10 14 8 0 19 8 26 17 7 10 16 15 19 11 4 -3 2 -12 -4 -20 -9 -9 -8 -13 0
-13 6 0 11 4 11 9 0 17 40 19 50 3 8 -14 10 -15 11 -2 1 8 1 18 0 23 -2 11 11
8 39 -8 30 -17 40 -18 40 -4 0 5 -4 7 -10 4 -5 -3 -10 -2 -10 3 0 6 7 13 16
16 21 8 20 8 22 -6 2 -25 8 -48 15 -54 3 -4 4 4 1 17 -3 13 -6 29 -8 36 -4 21
-14 25 -34 14 -15 -8 -22 -8 -25 2 -4 9 -6 9 -6 0 -1 -7 -6 -13 -12 -13 -5 0
-8 3 -6 7 3 5 -14 8 -38 9 -24 0 -42 -3 -39 -7 2 -5 12 -5 21 -2 11 4 14 3 9
-5 -11 -17 -34 -15 -45 5 -6 10 -11 12 -11 6 0 -7 -5 -13 -11 -13 -5 0 -8 3
-6 8 3 4 -8 7 -23 7 -21 1 -26 -2 -19 -11 6 -8 4 -16 -8 -25 -15 -12 -16 -12
-10 3 3 9 0 22 -8 28 -12 10 -13 8 -10 -10 2 -13 0 -20 -7 -18 -6 2 -13 13
-14 24 -3 19 8 19 681 19 376 0 681 -3 678 -8 -2 -4 1 -14 7 -22 7 -8 9 -15 4
-15 -14 0 -36 17 -35 26 1 5 -8 10 -19 10 -11 1 -17 -2 -15 -7 3 -4 0 -11 -6
-15 -7 -4 -9 -3 -6 3 4 6 1 13 -7 16 -9 4 -12 0 -9 -13 3 -10 13 -18 23 -17
10 1 16 5 13 10 -3 5 0 7 8 5 8 -3 13 -14 12 -24 -1 -10 0 -13 3 -7 3 7 10 13
15 13 6 0 7 -5 3 -11 -5 -8 -1 -8 14 0 15 8 23 7 32 -4 7 -8 17 -15 23 -15 5
0 -2 9 -17 21 -25 20 -26 22 -9 36 17 13 16 13 -4 3 -18 -8 -21 -8 -17 3 3 9
18 13 39 12 25 -2 32 1 28 11 -3 8 0 14 6 14 10 0 15 -14 12 -33 -1 -5 3 -6 9
-2 7 4 7 12 0 25 -14 26 -13 43 3 34 8 -5 8 -2 -2 9 -8 11 -9 17 -3 17 7 0 9
7 5 17 -4 9 -2 14 3 11 5 -4 8 21 6 59 -3 47 0 68 10 74 10 7 10 9 0 9 -7 0
-10 5 -7 11 4 6 8 139 10 297 2 158 4 358 5 444 1 87 5 158 8 158 4 0 8 91 9
203 1 111 5 227 8 257 4 30 7 95 6 143 0 48 3 86 7 83 4 -2 7 43 6 100 0 57 2
104 5 104 4 0 6 34 5 75 -1 41 2 73 5 71 3 -2 5 28 3 67 -1 40 0 79 4 87 3 8
7 66 10 129 2 70 9 120 16 129 11 13 11 14 -1 8 -10 -7 -12 -4 -6 13 3 11 6
40 7 63 0 24 5 49 12 57 8 11 8 13 -1 7 -16 -9 -6 51 11 73 8 12 8 13 -2 7
-11 -6 -12 4 -6 52 16 143 -77 252 -215 252 l-49 0 -4 63 c-4 73 -29 116 -82
141 -31 14 -147 16 -1229 16 l-1194 0 -33 23 c-46 31 -68 72 -87 164 -25 123
-59 176 -135 208 -55 23 -1395 22 -1448 -1z m454 -3755 c-2 -4 2 -10 8 -13 7
-3 -2 -4 -20 -2 -18 3 -30 0 -26 -5 3 -5 9 -7 13 -5 4 3 12 -4 19 -15 16 -25
4 -24 -24 2 -27 25 -22 45 11 45 13 0 22 -3 19 -7z m480 0 c-2 -4 2 -10 8 -13
7 -3 -2 -4 -20 -2 -18 3 -30 0 -26 -5 3 -5 9 -7 13 -5 4 3 12 -4 19 -15 16
-25 4 -24 -24 2 -27 25 -22 45 11 45 13 0 22 -3 19 -7z m1440 0 c-2 -4 2 -10
8 -13 7 -3 -2 -4 -20 -2 -18 3 -30 0 -26 -5 3 -5 9 -7 13 -5 4 3 12 -4 19 -15
16 -25 4 -24 -24 2 -27 25 -22 45 11 45 13 0 22 -3 19 -7z m480 0 c-2 -4 2
-10 8 -13 7 -3 -2 -4 -20 -2 -18 3 -30 0 -26 -5 3 -5 9 -7 13 -5 4 3 12 -4 19
-15 16 -25 4 -24 -24 2 -27 25 -22 45 11 45 13 0 22 -3 19 -7z m-2187 -24 c0
-8 -4 -12 -9 -9 -5 3 -6 10 -3 15 9 13 12 11 12 -6z m480 0 c0 -8 -4 -12 -9
-9 -5 3 -6 10 -3 15 9 13 12 11 12 -6z m1440 0 c0 -8 -4 -12 -9 -9 -5 3 -6 10
-3 15 9 13 12 11 12 -6z m480 0 c0 -8 -4 -12 -9 -9 -5 3 -6 10 -3 15 9 13 12
11 12 -6z"/>
<path d="M193 612 c-3 -7 -3 -16 1 -19 3 -4 6 1 6 11 0 14 4 15 20 6 11 -6 25
-8 31 -4 8 4 9 -1 4 -17 -3 -13 -3 -19 2 -13 4 6 15 10 23 8 8 -1 26 -5 39 -8
18 -4 22 -3 13 6 -7 7 -8 17 -2 28 6 12 5 17 -5 17 -7 0 -11 -7 -8 -16 4 -12
1 -12 -10 2 -15 18 -16 17 -22 -4 l-7 -22 -14 24 c-7 13 -13 18 -14 12 0 -7
-5 -13 -11 -13 -5 0 -8 4 -5 8 2 4 -5 8 -16 8 -11 0 -23 -6 -25 -14z m117 -17
c11 -13 10 -14 -4 -9 -9 3 -16 10 -16 15 0 13 6 11 20 -6z"/>
<path d="M370 622 c0 -7 -4 -11 -9 -7 -15 9 -23 -13 -12 -32 7 -13 10 -14 11
-4 0 8 3 11 7 8 3 -4 17 0 31 9 23 15 24 15 17 -8 -3 -12 -3 -18 2 -12 4 6 15
10 23 8 8 -1 26 -5 39 -8 18 -4 22 -3 13 6 -7 7 -8 17 -2 28 6 12 5 17 -5 17
-7 0 -11 -7 -8 -16 4 -12 1 -12 -10 2 -15 18 -16 17 -22 -4 l-7 -22 -14 24
c-7 13 -13 18 -14 12 0 -15 -21 -13 -32 2 -5 6 -8 5 -8 -3z m100 -27 c11 -13
10 -14 -4 -9 -9 3 -16 10 -16 15 0 13 6 11 20 -6z"/>
<path d="M530 622 c0 -7 -4 -11 -9 -7 -15 9 -23 -13 -12 -32 7 -13 10 -14 11
-4 0 8 3 11 7 8 3 -4 17 0 31 9 23 15 24 15 17 -8 -3 -12 -3 -18 2 -12 4 6 17
9 28 7 53 -11 77 -11 66 0 -18 18 -12 31 7 15 9 -8 24 -14 32 -13 8 0 18 -4
22 -10 4 -5 6 3 4 20 -3 26 -26 51 -26 28 0 -5 -13 -9 -30 -9 -16 0 -30 3 -30
8 0 4 -5 8 -12 8 -9 0 -9 -3 0 -12 7 -7 12 -17 12 -22 -1 -6 -9 -1 -20 12
l-19 22 -6 -22 -7 -21 -14 24 c-7 13 -13 18 -14 12 0 -15 -21 -13 -32 2 -5 6
-8 5 -8 -3z m193 -17 c-3 -9 -8 -14 -10 -11 -3 3 -2 9 2 15 9 16 15 13 8 -4z
m-93 -10 c11 -13 10 -14 -4 -9 -9 3 -16 10 -16 15 0 13 6 11 20 -6z"/>
<path d="M753 594 c-1 -33 0 -34 13 -15 8 10 11 26 8 35 -10 27 -20 18 -21
-20z"/>
<path d="M806 619 c2 -4 -2 -10 -8 -12 -9 -4 -9 -6 2 -6 10 -1 8 -6 -8 -17
-12 -8 -22 -21 -22 -27 0 -7 5 -4 11 6 6 9 14 15 20 12 8 -6 13 8 10 28 -2 11
11 8 39 -8 30 -17 40 -18 40 -4 0 5 -4 7 -10 4 -5 -3 -10 -2 -10 3 0 6 7 13
16 16 21 8 20 8 22 -6 2 -25 8 -48 15 -54 3 -4 4 4 1 17 -3 13 -6 29 -8 36 -4
21 -14 25 -34 14 -15 -8 -22 -8 -25 2 -4 9 -6 9 -6 0 -1 -7 -6 -13 -12 -13 -5
0 -8 4 -5 8 2 4 -4 8 -14 8 -10 0 -17 -3 -14 -7z"/>
<path d="M1888 608 c2 -10 9 -18 14 -18 5 0 7 4 3 9 -3 5 0 13 6 17 8 4 9 3 5
-4 -4 -7 -3 -12 2 -12 6 0 12 6 15 13 3 9 -4 13 -23 12 -21 0 -26 -4 -22 -17z"/>
<path d="M1970 622 c0 -7 -4 -11 -9 -7 -15 9 -23 -13 -12 -32 7 -13 10 -14 11
-4 0 8 3 11 7 8 3 -4 17 0 31 9 23 15 24 15 17 -8 -3 -12 -3 -18 2 -12 4 6 15
10 23 8 8 -1 26 -5 39 -8 18 -4 22 -3 13 6 -7 7 -8 17 -2 28 6 12 5 17 -5 17
-7 0 -11 -7 -8 -16 4 -12 1 -12 -10 2 -15 18 -16 17 -22 -4 l-7 -22 -14 24
c-7 13 -13 18 -14 12 0 -15 -21 -13 -32 2 -5 6 -8 5 -8 -3z m100 -27 c11 -13
10 -14 -4 -9 -9 3 -16 10 -16 15 0 13 6 11 20 -6z"/>
<path d="M2130 622 c0 -7 -4 -11 -9 -7 -15 9 -23 -13 -12 -32 7 -13 10 -14 11
-4 0 8 3 11 7 8 3 -4 17 0 31 9 23 15 24 15 17 -8 -3 -12 -3 -18 2 -12 4 6 15
10 23 8 8 -1 26 -5 39 -8 18 -4 22 -3 13 6 -7 7 -8 17 -2 28 6 12 5 17 -5 17
-7 0 -11 -7 -8 -16 4 -12 1 -12 -10 2 -15 18 -16 17 -22 -4 l-7 -22 -14 24
c-7 13 -13 18 -14 12 0 -15 -21 -13 -32 2 -5 6 -8 5 -8 -3z m100 -27 c11 -13
10 -14 -4 -9 -9 3 -16 10 -16 15 0 13 6 11 20 -6z"/>
<path d="M2290 622 c0 -7 -4 -11 -9 -7 -15 9 -23 -13 -12 -32 7 -13 10 -14 11
-4 0 8 3 11 7 8 3 -4 17 0 31 9 23 15 24 15 17 -8 -3 -12 -3 -18 2 -12 4 6 15
10 23 8 8 -1 26 -5 39 -8 18 -4 22 -3 13 6 -7 7 -8 17 -2 28 6 12 5 17 -5 17
-7 0 -11 -7 -8 -16 4 -12 1 -12 -10 2 -15 18 -16 17 -22 -4 l-7 -22 -14 24
c-7 13 -13 18 -14 12 0 -15 -21 -13 -32 2 -5 6 -8 5 -8 -3z m100 -27 c11 -13
10 -14 -4 -9 -9 3 -16 10 -16 15 0 13 6 11 20 -6z"/>
<path d="M2450 622 c0 -7 -4 -11 -9 -7 -15 9 -23 -13 -12 -32 7 -13 10 -14 11
-4 0 8 3 11 7 8 3 -4 17 0 31 9 23 15 24 15 17 -8 -3 -12 -3 -18 2 -12 4 6 17
9 28 7 53 -11 77 -11 66 0 -18 18 -12 31 7 15 9 -8 24 -14 32 -13 8 0 18 -4
22 -10 4 -5 6 3 4 20 -3 26 -26 51 -26 28 0 -5 -13 -9 -30 -9 -16 0 -30 3 -30
8 0 4 -5 8 -12 8 -9 0 -9 -3 0 -12 7 -7 12 -17 12 -22 -1 -6 -9 -1 -20 12
l-19 22 -6 -22 -7 -21 -14 24 c-7 13 -13 18 -14 12 0 -15 -21 -13 -32 2 -5 6
-8 5 -8 -3z m193 -17 c-3 -9 -8 -14 -10 -11 -3 3 -2 9 2 15 9 16 15 13 8 -4z
m-93 -10 c11 -13 10 -14 -4 -9 -9 3 -16 10 -16 15 0 13 6 11 20 -6z"/>
<path d="M2673 594 c-1 -33 0 -34 13 -15 8 10 11 26 8 35 -10 27 -20 18 -21
-20z"/>
<path d="M2726 619 c2 -4 -2 -10 -8 -12 -9 -4 -9 -6 2 -6 10 -1 8 -6 -8 -17
-12 -8 -22 -21 -22 -27 0 -7 5 -4 11 6 6 9 14 15 20 12 8 -6 13 8 10 28 -2 11
11 8 39 -8 30 -17 40 -18 40 -4 0 5 -4 7 -10 4 -5 -3 -10 -2 -10 3 0 6 7 13
16 16 21 8 20 8 22 -6 2 -25 8 -48 15 -54 3 -4 4 4 1 17 -3 13 -6 29 -8 36 -4
21 -14 25 -34 14 -15 -8 -22 -8 -25 2 -4 9 -6 9 -6 0 -1 -7 -6 -13 -12 -13 -5
0 -8 4 -5 8 2 4 -4 8 -14 8 -10 0 -17 -3 -14 -7z"/>
<path d="M3808 608 c2 -10 9 -18 14 -18 5 0 7 4 3 9 -3 5 0 13 6 17 8 4 9 3 5
-4 -4 -7 -3 -12 2 -12 6 0 12 6 15 13 3 9 -4 13 -23 12 -21 0 -26 -4 -22 -17z"/>
<path d="M3890 622 c0 -7 -4 -11 -9 -7 -15 9 -23 -13 -12 -32 7 -13 10 -14 11
-4 0 8 3 11 7 8 3 -4 17 0 31 9 23 15 24 15 17 -8 -3 -12 -3 -18 2 -12 4 6 15
10 23 8 8 -1 26 -5 39 -8 18 -4 22 -3 13 6 -7 7 -8 17 -2 28 6 12 5 17 -5 17
-7 0 -11 -7 -8 -16 4 -12 1 -12 -10 2 -15 18 -16 17 -22 -4 l-7 -22 -14 24
c-7 13 -13 18 -14 12 0 -15 -21 -13 -32 2 -5 6 -8 5 -8 -3z m100 -27 c11 -13
10 -14 -4 -9 -9 3 -16 10 -16 15 0 13 6 11 20 -6z"/>
<path d="M4050 622 c0 -7 -4 -11 -9 -7 -15 9 -23 -13 -12 -32 7 -13 10 -14 11
-4 0 8 3 11 7 8 3 -4 17 0 31 9 23 15 24 15 17 -8 -3 -12 -3 -18 2 -12 4 6 15
10 23 8 8 -1 26 -5 39 -8 18 -4 22 -3 13 6 -7 7 -8 17 -2 28 6 12 5 17 -5 17
-7 0 -11 -7 -8 -16 4 -12 1 -12 -10 2 -15 18 -16 17 -22 -4 l-7 -22 -14 24
c-7 13 -13 18 -14 12 0 -15 -21 -13 -32 2 -5 6 -8 5 -8 -3z m100 -27 c11 -13
10 -14 -4 -9 -9 3 -16 10 -16 15 0 13 6 11 20 -6z"/>
<path d="M4210 622 c0 -7 -4 -11 -9 -7 -15 9 -23 -13 -12 -32 7 -13 10 -14 11
-4 0 8 3 11 7 8 3 -4 17 0 31 9 23 15 24 15 17 -8 -3 -12 -3 -18 2 -12 4 6 15
10 23 8 8 -1 26 -5 39 -8 18 -4 22 -3 13 6 -7 7 -8 17 -2 28 6 12 5 17 -5 17
-7 0 -11 -7 -8 -16 4 -12 1 -12 -10 2 -15 18 -16 17 -22 -4 l-7 -22 -14 24
c-7 13 -13 18 -14 12 0 -15 -21 -13 -32 2 -5 6 -8 5 -8 -3z m100 -27 c11 -13
10 -14 -4 -9 -9 3 -16 10 -16 15 0 13 6 11 20 -6z"/>
<path d="M4370 622 c0 -7 -4 -11 -9 -7 -15 9 -23 -13 -12 -32 7 -13 10 -14 11
-4 0 8 3 11 7 8 3 -4 17 0 31 9 23 15 24 15 17 -8 -3 -12 -3 -18 2 -12 4 6 17
9 28 7 53 -11 77 -11 66 0 -18 18 -12 31 7 15 9 -8 24 -14 32 -13 8 0 18 -4
22 -10 4 -5 6 3 4 20 -3 26 -26 51 -26 28 0 -5 -13 -9 -30 -9 -16 0 -30 3 -30
8 0 4 -5 8 -12 8 -9 0 -9 -3 0 -12 7 -7 12 -17 12 -22 -1 -6 -9 -1 -20 12
l-19 22 -6 -22 -7 -21 -14 24 c-7 13 -13 18 -14 12 0 -15 -21 -13 -32 2 -5 6
-8 5 -8 -3z m193 -17 c-3 -9 -8 -14 -10 -11 -3 3 -2 9 2 15 9 16 15 13 8 -4z
m-93 -10 c11 -13 10 -14 -4 -9 -9 3 -16 10 -16 15 0 13 6 11 20 -6z"/>
<path d="M4593 594 c-1 -33 0 -34 13 -15 8 10 11 26 8 35 -10 27 -20 18 -21
-20z"/>
<path d="M4646 619 c2 -4 -2 -10 -8 -12 -9 -4 -9 -6 2 -6 10 -1 8 -6 -8 -17
-12 -8 -22 -21 -22 -27 0 -7 5 -4 11 6 6 9 14 15 20 12 8 -6 13 8 10 28 -2 11
11 8 39 -8 30 -17 40 -18 40 -4 0 5 -4 7 -10 4 -5 -3 -10 -2 -10 3 0 6 7 13
16 16 21 8 20 8 22 -6 2 -25 8 -48 15 -54 3 -4 4 4 1 17 -3 13 -6 29 -8 36 -4
21 -14 25 -34 14 -15 -8 -22 -8 -25 2 -4 9 -6 9 -6 0 -1 -7 -6 -13 -12 -13 -5
0 -8 4 -5 8 2 4 -4 8 -14 8 -10 0 -17 -3 -14 -7z"/>
<path d="M4907 613 c-12 -12 -7 -23 11 -23 14 0 14 2 3 9 -11 7 -10 10 5 14
14 3 15 5 3 6 -9 0 -19 -2 -22 -6z"/>
<path d="M210 591 c0 -5 7 -12 16 -15 14 -5 15 -4 4 9 -14 17 -20 19 -20 6z"/>
<path d="M836 577 c3 -10 9 -15 12 -12 3 3 0 11 -7 18 -10 9 -11 8 -5 -6z"/>
<path d="M1316 577 c3 -10 9 -15 12 -12 3 3 0 11 -7 18 -10 9 -11 8 -5 -6z"/>
<path d="M1796 577 c3 -10 9 -15 12 -12 3 3 0 11 -7 18 -10 9 -11 8 -5 -6z"/>
<path d="M1910 580 c-12 -7 -10 -9 7 -7 12 0 19 5 17 9 -6 10 -6 10 -24 -2z"/>
<path d="M2756 577 c3 -10 9 -15 12 -12 3 3 0 11 -7 18 -10 9 -11 8 -5 -6z"/>
<path d="M3236 577 c3 -10 9 -15 12 -12 3 3 0 11 -7 18 -10 9 -11 8 -5 -6z"/>
<path d="M3716 577 c3 -10 9 -15 12 -12 3 3 0 11 -7 18 -10 9 -11 8 -5 -6z"/>
<path d="M3830 580 c-12 -7 -10 -9 7 -7 12 0 19 5 17 9 -6 10 -6 10 -24 -2z"/>
<path d="M4676 577 c3 -10 9 -15 12 -12 3 3 0 11 -7 18 -10 9 -11 8 -5 -6z"/>
<path d="M190 576 c0 -2 8 -10 18 -17 15 -13 16 -12 3 4 -13 16 -21 21 -21 13z"/>
<path d="M948 573 c7 -3 16 -2 19 1 4 3 -2 6 -13 5 -11 0 -14 -3 -6 -6z"/>
<path d="M1250 570 c-9 -6 -10 -10 -3 -10 6 0 15 5 18 10 8 12 4 12 -15 0z"/>
<path d="M1428 573 c7 -3 16 -2 19 1 4 3 -2 6 -13 5 -11 0 -14 -3 -6 -6z"/>
<path d="M1730 570 c-9 -6 -10 -10 -3 -10 6 0 15 5 18 10 8 12 4 12 -15 0z"/>
<path d="M2868 573 c7 -3 16 -2 19 1 4 3 -2 6 -13 5 -11 0 -14 -3 -6 -6z"/>
<path d="M3170 570 c-9 -6 -10 -10 -3 -10 6 0 15 5 18 10 8 12 4 12 -15 0z"/>
<path d="M3348 573 c7 -3 16 -2 19 1 4 3 -2 6 -13 5 -11 0 -14 -3 -6 -6z"/>
<path d="M3650 570 c-9 -6 -10 -10 -3 -10 6 0 15 5 18 10 8 12 4 12 -15 0z"/>
<path d="M4788 573 c7 -3 16 -2 19 1 4 3 -2 6 -13 5 -11 0 -14 -3 -6 -6z"/>
<path d="M685 560 c-3 -6 1 -7 9 -4 18 7 21 14 7 14 -6 0 -13 -4 -16 -10z"/>
<path d="M2605 560 c-3 -6 1 -7 9 -4 18 7 21 14 7 14 -6 0 -13 -4 -16 -10z"/>
<path d="M4525 560 c-3 -6 1 -7 9 -4 18 7 21 14 7 14 -6 0 -13 -4 -16 -10z"/>
</g>
</svg>
