<?xml version="1.0" encoding="iso-8859-1"?>
<!-- Generator: Adobe Illustrator 17.1.0, SVG Export Plug-In . SVG Version: 6.00 Build 0)  -->
<!DOCTYPE svg PUBLIC "-//W3C//DTD SVG 1.1//EN" "http://www.w3.org/Graphics/SVG/1.1/DTD/svg11.dtd">
<svg xmlns="http://www.w3.org/2000/svg" xmlns:xlink="http://www.w3.org/1999/xlink" version="1.1" id="Capa_1" x="0px" y="0px" viewBox="0 0 465 465" style="enable-background:new 0 0 465 465;" xml:space="preserve" width="512px" height="512px">
<g>
	<path d="M221.5,372.089c4.142,0,7.5-3.357,7.5-7.5V197.5h33.5c4.142,0,7.5-3.357,7.5-7.5s-3.358-7.5-7.5-7.5H229v-55h181v55H292.5   c-4.142,0-7.5,3.357-7.5,7.5s3.358,7.5,7.5,7.5H410v167.089c0,4.143,3.358,7.5,7.5,7.5s7.5-3.357,7.5-7.5V120   c0-4.143-3.358-7.5-7.5-7.5h-196c-4.142,0-7.5,3.357-7.5,7.5v244.589C214,368.731,217.358,372.089,221.5,372.089z" fill="#18aebf"/>
	<path d="M377.5,222.5h-115c-4.142,0-7.5,3.357-7.5,7.5v76.225c0,4.143,3.358,7.5,7.5,7.5h115c4.142,0,7.5-3.357,7.5-7.5V230   C385,225.857,381.642,222.5,377.5,222.5z M370,298.725H270V237.5h100V298.725z" fill="#18aebf"/>
	<path d="M370.5,0h-276C42.393,0,0,42.393,0,94.5v300.089V457.5c0,4.143,3.358,7.5,7.5,7.5s7.5-3.357,7.5-7.5v-55.411h159V457.5   c0,4.143,3.358,7.5,7.5,7.5s7.5-3.357,7.5-7.5v-55.411h261V457.5c0,4.143,3.358,7.5,7.5,7.5s7.5-3.357,7.5-7.5v-62.911V94.5   C465,42.393,422.607,0,370.5,0z M370.5,15c43.836,0,79.5,35.663,79.5,79.5v292.589H189V94.5c0-33.322-17.337-62.669-43.463-79.5   H370.5z M15,94.5C15,50.663,50.664,15,94.5,15S174,50.663,174,94.5v292.589H15V94.5z" fill="#18aebf"/>
	<path d="M278.001,256.001l37.5,28.112c1.333,0.999,2.916,1.499,4.499,1.499s3.166-0.5,4.499-1.499l37.5-28.112   c3.314-2.484,3.987-7.186,1.502-10.5c-2.485-3.313-7.187-3.986-10.5-1.502L320,268.739l-33.001-24.74   c-3.314-2.486-8.015-1.812-10.5,1.502C274.015,248.815,274.687,253.517,278.001,256.001z" fill="#18aebf"/>
</g>
<g>
</g>
<g>
</g>
<g>
</g>
<g>
</g>
<g>
</g>
<g>
</g>
<g>
</g>
<g>
</g>
<g>
</g>
<g>
</g>
<g>
</g>
<g>
</g>
<g>
</g>
<g>
</g>
<g>
</g>
</svg>
